<mxfile host="app.diagrams.net" agent="Mozilla/5.0 (Windows NT 10.0; Win64; x64; rv:109.0) Gecko/20100101 Firefox/117.0" version="27.2.0">
  <diagram name="Página-1" id="b4JkCRnROzZ7c5UDisCW">
    <mxGraphModel dx="862" dy="467" grid="1" gridSize="10" guides="1" tooltips="1" connect="1" arrows="1" fold="1" page="1" pageScale="1" pageWidth="827" pageHeight="1169" math="0" shadow="0">
      <root>
        <mxCell id="0" />
        <mxCell id="1" parent="0" />
        <mxCell id="mdvhE89lCFFaDwQqOyZz-1" value="&lt;font style=&quot;font-size: 19px;&quot;&gt;Uma biblioteca deseja organizar os dados sobre seus livros e &lt;br&gt;empréstimos. Cada livro pode ser emprestado para um único usuário por &lt;br&gt;vez, mas um usuário pode pegar vários livros emprestados.&lt;br&gt;Tarefa: Modele as entidades envolvidas e defina a cardinalidade entre elas.&lt;/font&gt;" style="text;html=1;align=center;verticalAlign=middle;resizable=0;points=[];autosize=1;strokeColor=none;fillColor=none;" vertex="1" parent="1">
          <mxGeometry x="90" y="70" width="660" height="100" as="geometry" />
        </mxCell>
        <mxCell id="mdvhE89lCFFaDwQqOyZz-2" value="LIVRO" style="whiteSpace=wrap;html=1;align=center;" vertex="1" parent="1">
          <mxGeometry x="150" y="240" width="100" height="40" as="geometry" />
        </mxCell>
        <mxCell id="mdvhE89lCFFaDwQqOyZz-3" value="USUÁRIO" style="whiteSpace=wrap;html=1;align=center;" vertex="1" parent="1">
          <mxGeometry x="470" y="240" width="100" height="40" as="geometry" />
        </mxCell>
        <mxCell id="mdvhE89lCFFaDwQqOyZz-4" value="EMPRESTADO" style="shape=rhombus;perimeter=rhombusPerimeter;whiteSpace=wrap;html=1;align=center;" vertex="1" parent="1">
          <mxGeometry x="300" y="230" width="120" height="60" as="geometry" />
        </mxCell>
      </root>
    </mxGraphModel>
  </diagram>
</mxfile>
